<svg width="249" height="53" viewBox="0 0 249 53" fill="none" xmlns="http://www.w3.org/2000/svg">
<g clip-path="url(#clip0_33_28)">
<path d="M23.2668 15.3464H10.8907V18.3166H23.2668V15.3464Z" fill="#212121"/>
<path d="M10.8907 18.3165H13.861V45.5438H10.8907V18.3165Z" fill="#212121"/>
<path d="M20.2965 21.2868H16.8312V29.2075H20.2965V21.2868Z" fill="#212121"/>
<path d="M20.2965 30.6927H16.8312V38.6134H20.2965V30.6927Z" fill="#212121"/>
<path d="M40.5934 7.42568H37.6232V49.0092H40.5934V7.42568Z" fill="#212121"/>
<path d="M26.2369 7.42568H23.2666V49.0092H26.2369V7.42568Z" fill="#212121"/>
<path d="M40.5931 4.45535H23.2666V7.42561H40.5931V4.45535Z" fill="#212121"/>
<path d="M34.1579 10.3959H29.7025V19.8017H34.1579V10.3959Z" fill="#212121"/>
<path d="M34.1579 21.2868H29.7025V30.6926H34.1579V21.2868Z" fill="#212121"/>
<path d="M34.1579 32.1777H29.7025V41.5835H34.1579V32.1777Z" fill="#212121"/>
<path d="M10.8907 22.2769H-0.000244141V25.2471H10.8907V22.2769Z" fill="#212121"/>
<path d="M2.97001 25.2472H-0.000244141V42.0786H2.97001V25.2472Z" fill="#212121"/>
<path d="M8.41556 28.2174H5.44531V35.643H8.41556V28.2174Z" fill="#212121"/>
</g>
<path d="M66.4924 44.2554C65.6977 44.2554 64.9101 44.2342 64.1296 44.1916C63.3491 44.1632 62.5402 44.1135 61.7029 44.0426C60.8656 43.9858 59.9787 43.9078 59.0421 43.8084V13.0064C59.8935 12.8361 60.7805 12.6871 61.7029 12.5594C62.6395 12.4317 63.5761 12.3394 64.5128 12.2827C65.4636 12.2117 66.386 12.1762 67.28 12.1762C72.474 12.1762 76.3908 13.4889 79.0304 16.1143C81.6841 18.7397 83.011 22.7841 83.011 28.2478C83.011 31.9517 82.3937 34.9815 81.159 37.3372C79.9244 39.693 78.0796 41.4385 75.6245 42.5738C73.1836 43.6949 70.1396 44.2554 66.4924 44.2554ZM67.1736 41.2966C69.9125 41.2966 72.1902 40.8566 74.0067 39.9768C75.8232 39.0827 77.1784 37.6778 78.0725 35.762C78.9807 33.832 79.4348 31.3202 79.4348 28.2265C79.4348 25.1754 78.9878 22.6848 78.0937 20.7548C77.2139 18.8248 75.8799 17.4057 74.0918 16.4974C72.3179 15.575 70.0828 15.1138 67.3865 15.1138C66.6202 15.1138 65.8254 15.1493 65.0024 15.2202C64.1793 15.2912 63.342 15.3976 62.4905 15.5395V41.0411C63.2285 41.1263 63.9664 41.1901 64.7043 41.2327C65.4565 41.2753 66.2796 41.2966 67.1736 41.2966ZM88.8519 44V12.4955H92.3004V44H88.8519ZM114.352 44.2767C110.805 44.2767 107.832 43.7162 105.433 42.5951C103.035 41.474 101.226 39.7426 100.005 37.4011C98.7847 35.0453 98.1745 32.0155 98.1745 28.3116C98.1745 24.4942 98.806 21.3934 100.069 19.0093C101.332 16.6252 103.12 14.8796 105.433 13.7727C107.746 12.6516 110.478 12.0911 113.629 12.0911C114.821 12.0911 115.999 12.1691 117.162 12.3252C118.34 12.4813 119.511 12.7155 120.675 13.0277V16.0291C119.397 15.6744 118.205 15.4331 117.098 15.3054C115.992 15.1635 114.899 15.0925 113.82 15.0925C111.323 15.0925 109.173 15.5182 107.37 16.3697C105.582 17.2212 104.206 18.6119 103.241 20.5419C102.276 22.4719 101.793 25.0618 101.793 28.3116C101.793 31.3911 102.254 33.8888 103.177 35.8046C104.099 37.7062 105.476 39.0969 107.307 39.9768C109.137 40.8566 111.415 41.2966 114.14 41.2966C115.161 41.2966 116.112 41.254 116.992 41.1689C117.886 41.0837 118.716 40.9702 119.483 40.8283L118.12 42.2545V28.6735H121.398V43.6594C120.064 43.8723 118.844 44.0284 117.737 44.1277C116.63 44.2271 115.502 44.2767 114.352 44.2767ZM128.224 44V12.4955H131.673V44H128.224ZM138.909 44V12.9638C140.215 12.7084 141.52 12.5097 142.826 12.3678C144.146 12.2259 145.536 12.1549 146.998 12.1549C151.156 12.1549 154.3 13.0206 156.428 14.7519C158.571 16.4691 159.643 19.1867 159.643 22.9048C159.643 26.3958 158.578 29.0638 156.449 30.9086C154.335 32.7535 151.021 33.6759 146.509 33.6759C145.771 33.6759 145.075 33.6617 144.422 33.6333C143.784 33.5908 143.096 33.5411 142.358 33.4843V44H138.909ZM146.572 30.866C149.964 30.866 152.419 30.2203 153.938 28.9289C155.456 27.6233 156.215 25.6366 156.215 22.9686C156.215 20.173 155.47 18.1436 153.98 16.8806C152.504 15.6034 150.255 14.9648 147.232 14.9648C146.31 14.9648 145.451 15.0003 144.657 15.0712C143.876 15.128 143.11 15.2202 142.358 15.348V30.6106C143.053 30.7099 143.734 30.7809 144.401 30.8235C145.082 30.8518 145.806 30.866 146.572 30.866ZM176.873 44.4044C174.247 44.4044 171.955 43.851 169.997 42.7441C168.038 41.623 166.513 39.8775 165.42 37.5075C164.327 35.1234 163.781 32.0368 163.781 28.2478C163.781 24.4587 164.327 21.3792 165.42 19.0093C166.513 16.6252 168.038 14.8796 169.997 13.7727C171.969 12.6516 174.261 12.0911 176.873 12.0911C179.484 12.0911 181.768 12.6516 183.727 13.7727C185.685 14.8796 187.211 16.6252 188.304 19.0093C189.396 21.3792 189.943 24.4587 189.943 28.2478C189.943 32.0368 189.396 35.1234 188.304 37.5075C187.211 39.8775 185.678 41.623 183.706 42.7441C181.747 43.851 179.47 44.4044 176.873 44.4044ZM176.873 41.4456C178.774 41.4456 180.435 41.0269 181.854 40.1897C183.287 39.3382 184.394 37.9545 185.174 36.0387C185.969 34.1229 186.366 31.5614 186.366 28.3542C186.366 25.076 185.969 22.4648 185.174 20.5206C184.394 18.5765 183.287 17.1786 181.854 16.3271C180.435 15.4757 178.774 15.0499 176.873 15.0499C174.957 15.0499 173.282 15.4686 171.849 16.3059C170.43 17.1431 169.323 18.5197 168.528 20.4355C167.748 22.3513 167.357 24.9199 167.357 28.1413C167.357 31.4337 167.748 34.052 168.528 35.9962C169.323 37.9262 170.43 39.3169 171.849 40.1684C173.282 41.0198 174.957 41.4456 176.873 41.4456ZM195.785 44V12.4955H199.233V40.9986H214.751V44H195.785ZM218.568 44V12.4955H222.017V44H218.568ZM235.49 44.4044C234.242 44.4044 232.936 44.298 231.574 44.0851C230.225 43.8723 228.941 43.553 227.721 43.1272V40.1471C228.601 40.4451 229.488 40.6934 230.382 40.8921C231.29 41.0766 232.177 41.2185 233.042 41.3179C233.908 41.4172 234.738 41.4669 235.533 41.4669C238.144 41.4669 240.074 40.9773 241.323 39.9981C242.572 39.0047 243.196 37.5643 243.196 35.6769C243.196 34.0733 242.721 32.8528 241.77 32.0155C240.833 31.1641 239.23 30.4403 236.959 29.8443L235.256 29.3972C232.574 28.7161 230.566 27.6872 229.232 26.3107C227.898 24.9199 227.231 23.0893 227.231 20.8187C227.231 18.1081 228.168 15.9795 230.041 14.4326C231.928 12.8716 234.731 12.0911 238.449 12.0911C239.67 12.0911 240.876 12.1762 242.068 12.3465C243.26 12.5026 244.346 12.7368 245.325 13.049V16.0291C244.246 15.6885 243.132 15.4402 241.983 15.2841C240.848 15.1138 239.698 15.0287 238.534 15.0287C236.732 15.0287 235.256 15.2486 234.107 15.6885C232.957 16.1285 232.106 16.7671 231.552 17.6044C230.999 18.4416 230.722 19.4492 230.722 20.6271C230.722 22.1739 231.155 23.3731 232.021 24.2246C232.886 25.076 234.383 25.7856 236.512 26.3532L238.236 26.779C240.166 27.2757 241.756 27.9143 243.005 28.6948C244.253 29.4611 245.183 30.4048 245.793 31.5259C246.403 32.6328 246.709 33.9455 246.709 35.464C246.709 37.3656 246.269 38.9834 245.389 40.3174C244.509 41.6372 243.232 42.6518 241.557 43.3614C239.883 44.0568 237.86 44.4044 235.49 44.4044Z" fill="#212121"/>
<defs>
<clipPath id="clip0_33_28">
<rect width="40.5934" height="44.5538" fill="white" transform="translate(-0.00012207 4.45534)"/>
</clipPath>
</defs>
</svg>
