<svg width="50" height="50" viewBox="0 0 50 50" fill="none" xmlns="http://www.w3.org/2000/svg">
<path d="M27.8494 17.4807L29.3643 17.0984L28.6 14.0684L27.0849 14.4505C23.9774 15.2391 21.1506 16.8767 18.9207 19.18C16.6907 21.4834 15.1455 24.3618 14.458 27.4932L14.1252 29.0198L17.1786 29.6853L17.5112 28.1585C18.0814 25.5981 19.349 23.2454 21.1736 21.3608C22.9982 19.4763 25.3087 18.1333 27.8494 17.4807Z" fill="#1976D2"/>
<path d="M35.5102 14.4405C33.5677 7.03877 26.8206 1.5625 18.8184 1.5625C9.30332 1.5625 1.5625 9.30332 1.5625 18.8184C1.5625 26.8864 7.12891 33.678 14.6226 35.5566C15.591 39.2468 17.7545 42.5122 20.7751 44.8426C23.7957 47.173 27.5033 48.4372 31.3184 48.4375C40.8331 48.4375 48.5742 40.6967 48.5742 31.1821C48.5734 23.2491 43.1289 16.3414 35.5102 14.4405ZM4.6875 18.8184C4.6875 11.0264 11.0264 4.6875 18.8184 4.6875C26.6103 4.6875 32.9492 11.0264 32.9492 18.8184C32.9492 26.6104 26.6103 32.9492 18.8184 32.9492C11.0265 32.9492 4.6875 26.6095 4.6875 18.8184ZM31.3184 45.3125C25.3681 45.3125 20.0674 41.5182 18.0524 36.0555C18.3063 36.0667 18.5616 36.0734 18.8184 36.0734C19.8897 36.0734 20.9588 35.9738 22.0117 35.7759L31.5454 45.3096C31.4694 45.3108 31.3938 45.3125 31.3184 45.3125ZM35.3738 44.7185L25.416 34.7611C26.9525 34.1222 28.3886 33.2647 29.6799 32.215L39.8799 42.415C38.5289 43.4483 37.0021 44.2287 35.3733 44.7185H35.3738ZM42.1414 40.2563L31.919 30.0349C33.0387 28.7299 33.9574 27.2652 34.6447 25.6892L44.6943 35.7387C44.1293 37.3893 43.2634 38.921 42.1405 40.2563H42.1414ZM45.4221 32.0461L35.7131 22.3371C35.9537 21.1795 36.0748 20.0003 36.0744 18.818C36.0744 18.4972 36.0646 18.1786 36.0475 17.8622C38.7959 18.8435 41.1741 20.6498 42.857 23.034C44.5399 25.4183 45.4453 28.2642 45.4494 31.1825C45.4484 31.4723 45.4386 31.7602 45.4212 32.0461H45.4221Z" fill="#1976D2"/>
</svg>
