<svg width="38" height="44" viewBox="0 0 38 44" fill="none" xmlns="http://www.w3.org/2000/svg">
<path d="M8.58325 12.6667C8.58325 9.904 9.68072 7.25448 11.6342 5.30097C13.5877 3.34747 16.2372 2.25 18.9999 2.25C21.7626 2.25 24.4121 3.34747 26.3656 5.30097C28.3191 7.25448 29.4166 9.904 29.4166 12.6667V18.9167C29.4166 21.6793 28.3191 24.3289 26.3656 26.2824C24.4121 28.2359 21.7626 29.3333 18.9999 29.3333C16.2372 29.3333 13.5877 28.2359 11.6342 26.2824C9.68072 24.3289 8.58325 21.6793 8.58325 18.9167V12.6667Z" stroke="#1976D2" stroke-width="3"/>
<path d="M21.0833 12.6665H29.4167M21.0833 18.9165H29.4167M19 35.5832V41.8332" stroke="#1976D2" stroke-width="3" stroke-linecap="round"/>
<path d="M37.2291 16.8335C37.2291 16.4191 37.0645 16.0217 36.7714 15.7286C36.4784 15.4356 36.081 15.271 35.6666 15.271C35.2522 15.271 34.8548 15.4356 34.5617 15.7286C34.2687 16.0217 34.1041 16.4191 34.1041 16.8335H37.2291ZM3.89575 16.8335C3.89575 16.4191 3.73113 16.0217 3.43811 15.7286C3.14508 15.4356 2.74765 15.271 2.33325 15.271C1.91885 15.271 1.52142 15.4356 1.2284 15.7286C0.935372 16.0217 0.770752 16.4191 0.770752 16.8335H3.89575ZM26.3166 32.1335C25.9541 32.3346 25.6864 32.6715 25.5723 33.07C25.4582 33.4685 25.5071 33.896 25.7083 34.2585C25.9094 34.621 26.2462 34.8887 26.6448 35.0028C27.0433 35.1168 27.4708 35.068 27.8333 34.8668L26.3166 32.1335ZM34.1041 16.8335V18.9168H37.2291V16.8335H34.1041ZM3.89575 18.9168V16.8335H0.770752V18.9168H3.89575ZM18.9999 34.021C14.994 34.021 11.1522 32.4297 8.31966 29.5971C5.48708 26.7645 3.89575 22.9227 3.89575 18.9168H0.770752C0.770752 23.7515 2.69132 28.3882 6.10995 31.8068C9.52858 35.2254 14.1652 37.146 18.9999 37.146V34.021ZM34.1041 18.9168C34.1046 21.6145 33.3826 24.2632 32.0131 26.5874C30.6436 28.9116 28.6766 30.8267 26.3166 32.1335L27.8333 34.8668C30.6809 33.2894 33.0542 30.9781 34.7065 28.1732C36.3588 25.3684 37.2298 22.1722 37.2291 18.9168H34.1041Z" fill="#1976D2"/>
</svg>
