<svg width="46" height="44" viewBox="0 0 46 44" fill="none" xmlns="http://www.w3.org/2000/svg">
<path d="M43.8333 18.8752H22.6438C20.2771 18.8752 19.0938 18.8752 18.1229 19.4397C17.15 20.0064 16.5667 21.0335 15.3979 23.0918L5.72708 41.6918M43.8333 18.8752C43.8333 17.7085 39.6667 14.7085 39.6667 14.7085M43.8333 18.8752C43.8333 20.0418 39.6667 23.0418 39.6667 23.0418M4.25 36.1543C4.25 36.1543 4.74583 41.1252 5.725 41.6918C6.70417 42.2606 11.2354 40.2064 11.2354 40.2064" stroke="#1976D2" stroke-width="3" stroke-linecap="round" stroke-linejoin="round"/>
<path d="M31.2022 18.8752C31.2897 18.2266 31.3334 17.5661 31.3334 16.8939C31.3334 8.7835 24.8042 2.2085 16.7501 2.2085C8.69591 2.2085 2.16675 8.7835 2.16675 16.8939C2.16675 22.7502 5.573 27.9772 10.5001 30.3335" stroke="#1976D2" stroke-width="3" stroke-linecap="round" stroke-linejoin="round"/>
</svg>
