<svg width="40" height="46" viewBox="0 0 40 46" fill="none" xmlns="http://www.w3.org/2000/svg">
<path fill-rule="evenodd" clip-rule="evenodd" d="M2.16997 25.0552C1.82919 24.6997 1.56178 24.2805 1.38301 23.8216C1.20423 23.3627 1.11759 22.8731 1.12804 22.3807C1.13849 21.8883 1.24581 21.4028 1.44389 20.9519C1.64197 20.501 1.92692 20.0935 2.28247 19.7527C2.63803 19.412 3.05722 19.1445 3.51612 18.9658C3.97502 18.787 4.46464 18.7004 4.95702 18.7108C5.44941 18.7213 5.93491 18.8286 6.38582 19.0267C6.83672 19.2247 7.24419 19.5097 7.58497 19.8652L14.5 27.0852C14.6136 27.2038 14.7027 27.3435 14.7623 27.4965C14.8219 27.6494 14.8508 27.8126 14.8473 27.9768C14.8438 28.1409 14.808 28.3027 14.742 28.453C14.676 28.6033 14.581 28.7391 14.4625 28.8527C14.344 28.9663 14.2042 29.0555 14.0513 29.1151C13.8983 29.1747 13.7351 29.2035 13.571 29.2001C13.4068 29.1966 13.245 29.1608 13.0947 29.0948C12.9444 29.0287 12.8086 28.9338 12.695 28.8152L5.77997 21.5952C5.55056 21.3559 5.23546 21.2175 4.90399 21.2104C4.57252 21.2034 4.25183 21.3283 4.01247 21.5577C3.77312 21.7872 3.6347 22.1023 3.62766 22.4337C3.62063 22.7652 3.74556 23.0859 3.97497 23.3252L10.8925 30.5452C11.1219 30.7846 11.2468 31.1053 11.2398 31.4368C11.2328 31.7682 11.0943 32.0833 10.855 32.3127C10.6156 32.5422 10.2949 32.6671 9.96346 32.6601C9.63199 32.653 9.31689 32.5146 9.08747 32.2752L2.16997 25.0552Z" fill="#1976D2"/>
<path fill-rule="evenodd" clip-rule="evenodd" d="M4.04996 19.7901C3.69912 19.4366 3.4222 19.0168 3.23538 18.5551C3.04855 18.0934 2.95557 17.5992 2.96185 17.1012C2.96812 16.6032 3.07354 16.1114 3.27194 15.6546C3.47034 15.1978 3.75775 14.785 4.11739 14.4405C4.47703 14.096 4.9017 13.8265 5.36661 13.6479C5.83152 13.4693 6.32736 13.3851 6.82517 13.4002C7.32298 13.4152 7.8128 13.5294 8.26604 13.7358C8.71928 13.9423 9.12685 14.2369 9.46496 14.6026L16.3825 21.8226C16.6119 22.062 16.7368 22.3827 16.7298 22.7141C16.7227 23.0456 16.5843 23.3607 16.345 23.5901C16.1056 23.8195 15.7849 23.9445 15.4534 23.9374C15.122 23.9304 14.8069 23.792 14.5775 23.5526L7.65996 16.3301C7.43055 16.0908 7.11545 15.9523 6.78398 15.9453C6.45251 15.9383 6.13182 16.0632 5.89246 16.2926C5.6531 16.522 5.51468 16.8371 5.50765 17.1686C5.50062 17.5001 5.62555 17.8208 5.85496 18.0601L12.7725 25.2801C13.0019 25.5195 13.1268 25.8402 13.1198 26.1716C13.1127 26.5031 12.9743 26.8182 12.735 27.0476C12.4956 27.277 12.1749 27.402 11.8434 27.3949C11.512 27.3879 11.1969 27.2495 10.9675 27.0101L4.04996 19.7901Z" fill="#1976D2"/>
<path fill-rule="evenodd" clip-rule="evenodd" d="M9.39005 18.1352C9.03346 17.7829 8.7511 17.3627 8.55966 16.8995C8.36823 16.4363 8.2716 15.9393 8.2755 15.4381C8.2794 14.9369 8.38375 14.4415 8.58237 13.9813C8.78099 13.5211 9.06985 13.1054 9.43189 12.7587C9.79392 12.4121 10.2218 12.1415 10.6902 11.963C11.1586 11.7846 11.658 11.7018 12.1589 11.7197C12.6598 11.7375 13.1521 11.8556 13.6066 12.0669C14.0611 12.2783 14.4686 12.5786 14.8051 12.9502L22.5951 21.0777C22.7086 21.1963 22.7978 21.3362 22.8573 21.4893C22.9168 21.6425 22.9456 21.8058 22.942 21.9701C22.9384 22.1343 22.9025 22.2962 22.8363 22.4466C22.7701 22.597 22.675 22.7328 22.5563 22.8464C22.4376 22.96 22.2977 23.0491 22.1446 23.1086C21.9915 23.1682 21.8281 23.1969 21.6639 23.1933C21.4997 23.1897 21.3377 23.1538 21.1874 23.0877C21.037 23.0215 20.9011 22.9263 20.7876 22.8076L13.0001 14.6777C12.8865 14.5591 12.7506 14.4641 12.6003 14.3981C12.45 14.3321 12.2882 14.2963 12.1241 14.2928C11.7926 14.2858 11.4719 14.4107 11.2326 14.6402C10.9932 14.8696 10.8548 15.1847 10.8477 15.5161C10.8407 15.8476 10.9656 16.1683 11.1951 16.4076L18.1126 23.6252C18.2328 23.7423 18.3282 23.8824 18.3931 24.0372C18.4581 24.192 18.4911 24.3582 18.4904 24.5261C18.4897 24.6939 18.4552 24.8599 18.3889 25.0141C18.3226 25.1683 18.226 25.3076 18.1047 25.4237C17.9834 25.5397 17.8401 25.6302 17.6831 25.6896C17.5261 25.7491 17.3588 25.7763 17.1911 25.7697C17.0233 25.763 16.8587 25.7227 16.7069 25.651C16.5551 25.5794 16.4193 25.4779 16.3076 25.3527L9.39005 18.1352Z" fill="#1976D2"/>
<path fill-rule="evenodd" clip-rule="evenodd" d="M19.6 17.6298C19.4014 16.6712 19.5624 15.6731 20.0523 14.8255C20.5422 13.978 21.3267 13.3403 22.2565 13.0339C23.1862 12.7275 24.1962 12.7738 25.094 13.164C25.9918 13.5541 26.7147 14.261 27.125 15.1498L29 19.2248C29.0684 19.3742 29.1068 19.5356 29.1129 19.6998C29.1189 19.864 29.0926 20.0278 29.0354 20.1818C28.9782 20.3358 28.8912 20.4771 28.7794 20.5975C28.6675 20.7179 28.5331 20.8151 28.3837 20.8835C28.2344 20.952 28.073 20.9903 27.9088 20.9964C27.7445 21.0025 27.5808 20.9762 27.4267 20.9189C27.2727 20.8617 27.1314 20.7747 27.011 20.6629C26.8906 20.5511 26.7934 20.4167 26.725 20.2673L24.855 16.1898C24.7039 15.855 24.4343 15.588 24.0981 15.4401C23.7619 15.2922 23.3829 15.2739 23.034 15.3887C22.6852 15.5036 22.3911 15.7434 22.2085 16.0621C22.0259 16.3808 21.9677 16.7557 22.045 17.1148L23.035 21.8448C23.1026 22.1693 23.0385 22.5075 22.8569 22.7848C22.6752 23.0621 22.3908 23.2559 22.0662 23.3235C21.7417 23.3912 21.4035 23.3271 21.1262 23.1454C20.8489 22.9637 20.6551 22.6793 20.5875 22.3548L19.6 17.6298Z" fill="#1976D2"/>
<path fill-rule="evenodd" clip-rule="evenodd" d="M5.73747 34.2002C5.85598 34.0866 5.99571 33.9975 6.14868 33.9379C6.30164 33.8783 6.46485 33.8494 6.62898 33.8529C6.79312 33.8564 6.95495 33.8921 7.10525 33.9582C7.25556 34.0242 7.39138 34.1192 7.50497 34.2377L13.5325 40.5277C14.4275 41.4602 15.5025 42.2027 16.6925 42.7102L16.7775 42.7477C17.9658 43.2545 19.2471 43.5068 20.5389 43.4883C21.8306 43.4698 23.1042 43.1809 24.2775 42.6402L24.625 42.4802C25.875 41.9052 27.0175 41.1302 28.0075 40.1802L28.325 39.8727C29.6581 38.5959 30.5793 36.9499 30.9704 35.1458C31.3615 33.3418 31.2047 31.462 30.52 29.7477L26.7125 20.2227C26.6514 20.0702 26.621 19.9072 26.6229 19.7429C26.6249 19.5787 26.6591 19.4164 26.7238 19.2654C26.7884 19.1144 26.8822 18.9776 26.9997 18.8628C27.1172 18.748 27.2562 18.6575 27.4087 18.5965C27.5612 18.5354 27.7242 18.505 27.8885 18.5069C28.0528 18.5089 28.215 18.5431 28.366 18.6078C28.5171 18.6724 28.6538 18.7662 28.7686 18.8837C28.8834 19.0013 28.9739 19.1402 29.035 19.2927L32.84 28.8177C33.7086 30.995 33.9075 33.382 33.4114 35.673C32.9152 37.9641 31.7465 40.0549 30.055 41.6777L29.7375 41.9827C28.5434 43.1237 27.169 44.0596 25.67 44.7527L25.3225 44.9127C23.8322 45.599 22.2148 45.9655 20.5743 45.9888C18.9338 46.012 17.3066 45.6915 15.7975 45.0477L15.7125 45.0102C14.2109 44.3731 12.8549 43.4365 11.7275 42.2577L5.70247 35.9677C5.5887 35.8494 5.49936 35.7098 5.43955 35.5569C5.37974 35.404 5.35063 35.2409 5.35388 35.0767C5.35713 34.9126 5.39268 34.7507 5.4585 34.6003C5.52431 34.4499 5.61911 34.314 5.73747 34.2002Z" fill="#1976D2"/>
<path fill-rule="evenodd" clip-rule="evenodd" d="M2.01751 32.1252C1.32927 31.4071 0.954478 30.445 0.975576 29.4506C0.996674 28.4562 1.41194 27.5109 2.13001 26.8227C2.84808 26.1344 3.81015 25.7596 4.80456 25.7807C5.79897 25.8018 6.74427 26.2171 7.43251 26.9352L10.8925 30.5452C11.1219 30.7845 11.2469 31.1052 11.2398 31.4367C11.2328 31.7682 11.0944 32.0833 10.855 32.3127C10.6157 32.5421 10.295 32.667 9.96349 32.66C9.63202 32.653 9.31692 32.5145 9.08751 32.2752L5.62751 28.6652C5.51392 28.5467 5.37809 28.4517 5.22779 28.3856C5.07749 28.3196 4.91565 28.2838 4.75153 28.2804C4.5874 28.2769 4.42419 28.3058 4.27123 28.3653C4.11826 28.4249 3.97853 28.5141 3.86001 28.6277C3.74149 28.7413 3.64651 28.8771 3.58048 29.0274C3.51446 29.1777 3.47868 29.3395 3.4752 29.5037C3.47172 29.6678 3.5006 29.831 3.56019 29.984C3.61978 30.1369 3.70892 30.2767 3.82251 30.3952L10.7425 37.6152C10.8561 37.7337 10.9452 37.8734 11.0048 38.0264C11.0644 38.1794 11.0933 38.3426 11.0898 38.5067C11.0863 38.6708 11.0506 38.8326 10.9845 38.983C10.9185 39.1333 10.8235 39.2691 10.705 39.3827C10.5865 39.4963 10.4468 39.5854 10.2938 39.645C10.1408 39.7046 9.97762 39.7335 9.81349 39.73C9.64937 39.7265 9.48753 39.6907 9.33723 39.6247C9.18693 39.5587 9.0511 39.4637 8.93751 39.3452L2.01751 32.1252ZM14.735 16.4752C14.3842 16.1217 14.1073 15.7018 13.9204 15.2402C13.7336 14.7785 13.6406 14.2842 13.6469 13.7862C13.6532 13.2882 13.7586 12.7965 13.957 12.3396C14.1554 11.8828 14.4428 11.4701 14.8024 11.1256C15.1621 10.781 15.5868 10.5116 16.0517 10.333C16.5166 10.1544 17.0124 10.0701 17.5102 10.0852C18.008 10.1003 18.4979 10.2144 18.9511 10.4209C19.4043 10.6273 19.8119 10.922 20.15 11.2877L21.36 12.5527C21.4803 12.6698 21.5757 12.8099 21.6406 12.9647C21.7055 13.1195 21.7386 13.2858 21.7379 13.4536C21.7371 13.6215 21.7026 13.7874 21.6363 13.9417C21.5701 14.0959 21.4734 14.2352 21.3522 14.3512C21.2309 14.4673 21.0875 14.5577 20.9305 14.6172C20.7736 14.6766 20.6062 14.7038 20.4385 14.6972C20.2708 14.6906 20.1061 14.6502 19.9543 14.5786C19.8025 14.5069 19.6667 14.4054 19.555 14.2802L18.345 13.0177C18.1156 12.7783 17.8005 12.6399 17.469 12.6329C17.1376 12.6258 16.8169 12.7508 16.5775 12.9802C16.3382 13.2096 16.1997 13.5247 16.1927 13.8562C16.1857 14.1876 16.3106 14.5083 16.54 14.7477L19.9975 18.3577C20.2269 18.597 20.3519 18.9177 20.3448 19.2492C20.3378 19.5807 20.1994 19.8958 19.96 20.1252C19.7207 20.3546 19.4 20.4795 19.0685 20.4725C18.737 20.4654 18.4219 20.327 18.1925 20.0877L14.735 16.4752ZM25.3225 16.2327C24.9864 15.3045 25.022 14.2824 25.4217 13.3798C25.8214 12.4772 26.5544 11.7639 27.4676 11.3889C28.3807 11.014 29.4035 11.0064 30.3221 11.3676C31.2408 11.7289 31.9844 12.4311 32.3975 13.3277L34.345 17.5702C34.4135 17.7196 34.4518 17.8809 34.4579 18.0452C34.464 18.2094 34.4376 18.3731 34.3804 18.5272C34.3232 18.6812 34.2362 18.8225 34.1244 18.9429C34.0126 19.0633 33.8781 19.1605 33.7288 19.2289C33.5794 19.2974 33.418 19.3357 33.2538 19.3418C33.0896 19.3479 32.9258 19.3216 32.7718 19.2643C32.6177 19.2071 32.4765 19.1201 32.3561 19.0083C32.2357 18.8965 32.1385 18.762 32.07 18.6127L30.125 14.3702C29.9795 14.0628 29.7216 13.8229 29.4045 13.7001C29.0874 13.5773 28.7352 13.5809 28.4207 13.7101C28.1061 13.8393 27.8531 14.0844 27.7139 14.3946C27.5747 14.7049 27.5599 15.0568 27.6725 15.3777L29.2025 19.5852C29.3159 19.8968 29.3008 20.2407 29.1607 20.5412C29.0205 20.8418 28.7666 21.0743 28.455 21.1877C28.1434 21.3011 27.7995 21.286 27.4989 21.1458C27.1984 21.0056 26.9659 20.7518 26.8525 20.4402L25.3225 16.2327Z" fill="#1976D2"/>
<path fill-rule="evenodd" clip-rule="evenodd" d="M32.755 16.9375C33.0627 16.8142 33.4067 16.8182 33.7114 16.9486C34.0161 17.0789 34.2566 17.3249 34.38 17.6325L38.185 27.1575C39.0542 29.3351 39.2534 31.7226 38.7572 34.0141C38.2611 36.3057 37.0921 38.3969 35.4 40.02L35.1475 40.2625C33.9112 41.4442 32.4878 42.4131 30.935 43.13L30.63 43.27C29.808 43.6469 28.9604 43.9595 28.09 44.205L25.205 45.02C25.0469 45.0645 24.8816 45.0774 24.7186 45.058C24.5555 45.0386 24.3979 44.9873 24.2546 44.907C24.1114 44.8266 23.9854 44.7189 23.8838 44.5899C23.7822 44.4608 23.707 44.3131 23.6625 44.155C23.618 43.9969 23.6051 43.8316 23.6245 43.6686C23.6439 43.5055 23.6952 43.3478 23.7756 43.2046C23.8559 43.0614 23.9636 42.9354 24.0926 42.8338C24.2217 42.7322 24.3694 42.657 24.5275 42.6125L27.41 41.8C28.1584 41.59 28.8834 41.3233 29.585 41L29.89 40.8575C31.19 40.2572 32.3819 39.4463 33.4175 38.4575L33.6725 38.215C35.0043 36.9367 35.9244 35.2902 36.3149 33.486C36.7055 31.6818 36.5489 29.8021 35.865 28.0875L32.0575 18.5625C31.9966 18.41 31.9662 18.247 31.9683 18.0828C31.9704 17.9186 32.0048 17.7564 32.0696 17.6055C32.1343 17.4546 32.2282 17.3179 32.3458 17.2033C32.4634 17.0887 32.6025 16.9984 32.755 16.9375ZM4.55002 1.715C4.82426 1.52924 5.16101 1.45992 5.48632 1.52226C5.81163 1.58461 6.09889 1.77351 6.28502 2.0475L9.30002 6.4925C9.4717 6.76677 9.53035 7.09692 9.46362 7.41353C9.39689 7.73014 9.20998 8.00855 8.94221 8.19019C8.67444 8.37183 8.34666 8.44257 8.02781 8.38752C7.70896 8.33247 7.42388 8.15592 7.23252 7.895L4.21502 3.4525C4.12265 3.31662 4.05797 3.16386 4.02469 3.00297C3.99141 2.84207 3.99018 2.67619 4.02106 2.51482C4.05194 2.35344 4.11433 2.19974 4.20467 2.0625C4.295 1.92526 4.41401 1.80718 4.55002 1.715ZM24.5675 1.6375C24.2724 1.48729 23.9298 1.46032 23.6148 1.5625C23.2998 1.66468 23.0383 1.88766 22.8875 2.1825L20.62 6.625C20.5395 6.77161 20.4892 6.93289 20.4722 7.09929C20.4552 7.26568 20.4717 7.4338 20.5208 7.5937C20.5699 7.75359 20.6506 7.902 20.7581 8.03013C20.8656 8.15827 20.9978 8.26352 21.1467 8.33966C21.2956 8.4158 21.4583 8.46127 21.6251 8.47339C21.792 8.48551 21.9595 8.46402 22.1179 8.4102C22.2763 8.35638 22.4222 8.27132 22.5471 8.16006C22.672 8.04881 22.7733 7.91362 22.845 7.7625L25.1125 3.3175C25.2627 3.02239 25.2897 2.67974 25.1875 2.36477C25.0853 2.04979 24.8624 1.78823 24.5675 1.6375ZM14.775 0.25C15.1065 0.25 15.4245 0.381696 15.6589 0.616116C15.8933 0.850537 16.025 1.16848 16.025 1.5V5.9425C16.025 6.27402 15.8933 6.59196 15.6589 6.82638C15.4245 7.0608 15.1065 7.1925 14.775 7.1925C14.4435 7.1925 14.1256 7.0608 13.8911 6.82638C13.6567 6.59196 13.525 6.27402 13.525 5.9425V1.5C13.525 1.16848 13.6567 0.850537 13.8911 0.616116C14.1256 0.381696 14.4435 0.25 14.775 0.25Z" fill="#1976D2"/>
</svg>
