<svg width="40" height="36" viewBox="0 0 40 36" fill="none" xmlns="http://www.w3.org/2000/svg">
<path fill-rule="evenodd" clip-rule="evenodd" d="M29.0209 0.8125H8.89592C7.78133 0.8125 6.85425 0.8125 6.09383 0.875C3.15425 1.11458 1.02716 3.3 0.791748 6.17708C0.729248 6.9375 0.729248 7.86875 0.729248 8.97917V27.0208C0.729248 28.1354 0.729248 29.0625 0.791748 29.8229C0.854248 30.6146 0.995915 31.3562 1.35425 32.0583C1.90356 33.1366 2.78018 34.0132 3.85841 34.5625C4.5605 34.9208 5.30216 35.0625 6.09383 35.125C6.85425 35.1875 7.78133 35.1875 8.89383 35.1875H29.023C30.1355 35.1875 31.0647 35.1875 31.823 35.125C32.6147 35.0625 33.3563 34.9208 34.0584 34.5625C34.4128 34.3664 34.6772 34.0403 34.7958 33.6531C34.9144 33.2658 34.878 32.8476 34.6943 32.4866C34.5106 32.1257 34.1939 31.8502 33.811 31.7182C33.4281 31.5862 33.0089 31.6081 32.6417 31.7792C32.4522 31.875 32.1667 31.9625 31.5667 32.0104C30.9522 32.0604 30.1501 32.0625 28.9584 32.0625H8.95841C7.76675 32.0625 6.96466 32.0625 6.348 32.0104C5.75008 31.9625 5.46466 31.875 5.27716 31.7792C4.78636 31.5294 4.38739 31.1304 4.13758 30.6396C4.04175 30.4521 3.95425 30.1667 3.90633 29.5667C3.85633 28.9521 3.85425 28.15 3.85425 26.9583V10.1875H34.0334C34.0501 11.0556 34.0598 11.9236 34.0626 12.7917C34.0626 13.2061 34.2272 13.6035 34.5202 13.8965C34.8133 14.1895 35.2107 14.3542 35.6251 14.3542C36.0395 14.3542 36.4369 14.1895 36.7299 13.8965C37.023 13.6035 37.1876 13.2061 37.1876 12.7917C37.1876 12.4028 37.1855 12.0153 37.1813 11.6292C37.1667 10.2333 37.1251 7.86458 36.9917 6.175C36.7563 3.20833 34.7584 1.1125 31.823 0.875C31.0626 0.8125 30.1355 0.8125 29.0209 0.8125ZM33.9209 7.0625C33.8209 5.40208 33.3417 4.13333 31.5667 3.98958C30.9522 3.93958 30.1501 3.9375 28.9584 3.9375H8.95841C7.76675 3.9375 6.96466 3.9375 6.348 3.98958C4.64383 4.12917 3.92508 5.40625 3.87091 7.0625H33.9209Z" fill="#1976D2"/>
<path d="M8.54175 12.271C8.12735 12.271 7.72992 12.4356 7.43689 12.7286C7.14387 13.0217 6.97925 13.4191 6.97925 13.8335C6.97925 14.2479 7.14387 14.6453 7.43689 14.9383C7.72992 15.2314 8.12735 15.396 8.54175 15.396H21.0417C21.4561 15.396 21.8536 15.2314 22.1466 14.9383C22.4396 14.6453 22.6042 14.2479 22.6042 13.8335C22.6042 13.4191 22.4396 13.0217 22.1466 12.7286C21.8536 12.4356 21.4561 12.271 21.0417 12.271H8.54175Z" fill="#1976D2"/>
<path fill-rule="evenodd" clip-rule="evenodd" d="M30.4167 14.354C29.3701 14.3544 28.3378 14.5974 27.4009 15.064C26.464 15.5306 25.6481 16.208 25.0171 17.043C24.3862 17.8781 23.9574 18.8481 23.7645 19.8767C23.5715 20.9054 23.6197 21.9648 23.9052 22.9718C24.1907 23.9787 24.7057 24.9057 25.4099 25.6801C26.114 26.4544 26.9881 27.055 27.9634 27.4346C28.9388 27.8142 29.9889 27.9626 31.0312 27.868C32.0736 27.7734 33.0798 27.4384 33.9709 26.8894L36.6042 29.5207C36.7472 29.6742 36.9197 29.7973 37.1114 29.8827C37.3031 29.9681 37.51 30.014 37.7198 30.0177C37.9296 30.0214 38.138 29.9828 38.3325 29.9043C38.5271 29.8257 38.7038 29.7087 38.8522 29.5603C39.0006 29.412 39.1175 29.2352 39.1961 29.0407C39.2747 28.8461 39.3133 28.6377 39.3096 28.4279C39.3059 28.2181 39.26 28.0112 39.1746 27.8195C39.0892 27.6279 38.966 27.4554 38.8125 27.3123L36.1813 24.679C36.814 23.6531 37.1614 22.4769 37.1875 21.2718C37.2137 20.0668 36.9177 18.8766 36.3301 17.8242C35.7425 16.7718 34.8847 15.8953 33.8451 15.2852C32.8056 14.6752 31.622 14.3537 30.4167 14.354ZM26.7709 21.1248C26.7709 20.1579 27.155 19.2306 27.8387 18.5468C28.5224 17.8631 29.4498 17.479 30.4167 17.479C31.3836 17.479 32.311 17.8631 32.9947 18.5468C33.6784 19.2306 34.0625 20.1579 34.0625 21.1248C34.0625 22.0918 33.6784 23.0191 32.9947 23.7028C32.311 24.3866 31.3836 24.7707 30.4167 24.7707C29.4498 24.7707 28.5224 24.3866 27.8387 23.7028C27.155 23.0191 26.7709 22.0918 26.7709 21.1248Z" fill="#1976D2"/>
<path d="M8.54175 16.4375C8.12735 16.4375 7.72992 16.6021 7.43689 16.8951C7.14387 17.1882 6.97925 17.5856 6.97925 18C6.97925 18.4144 7.14387 18.8118 7.43689 19.1049C7.72992 19.3979 8.12735 19.5625 8.54175 19.5625H14.7917C15.2061 19.5625 15.6036 19.3979 15.8966 19.1049C16.1896 18.8118 16.3542 18.4144 16.3542 18C16.3542 17.5856 16.1896 17.1882 15.8966 16.8951C15.6036 16.6021 15.2061 16.4375 14.7917 16.4375H8.54175ZM8.54175 22.6875C8.12735 22.6875 7.72992 22.8521 7.43689 23.1451C7.14387 23.4382 6.97925 23.8356 6.97925 24.25C6.97925 24.6644 7.14387 25.0618 7.43689 25.3549C7.72992 25.6479 8.12735 25.8125 8.54175 25.8125H18.9584C19.3728 25.8125 19.7702 25.6479 20.0633 25.3549C20.3563 25.0618 20.5209 24.6644 20.5209 24.25C20.5209 23.8356 20.3563 23.4382 20.0633 23.1451C19.7702 22.8521 19.3728 22.6875 18.9584 22.6875H8.54175ZM8.54175 26.8542C8.12735 26.8542 7.72992 27.0188 7.43689 27.3118C7.14387 27.6048 6.97925 28.0023 6.97925 28.4167C6.97925 28.8311 7.14387 29.2285 7.43689 29.5215C7.72992 29.8145 8.12735 29.9792 8.54175 29.9792H14.7917C15.2061 29.9792 15.6036 29.8145 15.8966 29.5215C16.1896 29.2285 16.3542 28.8311 16.3542 28.4167C16.3542 28.0023 16.1896 27.6048 15.8966 27.3118C15.6036 27.0188 15.2061 26.8542 14.7917 26.8542H8.54175Z" fill="#1976D2"/>
</svg>
